<svg width="29" height="29" viewBox="0 0 29 29" fill="none" xmlns="http://www.w3.org/2000/svg">
<g clip-path="url(#clip0_2056_8279)">
<path d="M22.1461 17.6054C17.1611 19.1448 11.8276 19.1448 6.84253 17.6054L7.86669 9.41211H21.122C22.1756 17.8703 22.0284 16.6754 22.1461 17.6054Z" fill="#374F68"/>
<path d="M22.0579 16.9227C18.1291 17.8261 14.0438 17.7999 10.1269 16.8461C9.70628 16.7427 9.33831 16.4883 9.09304 16.1312C8.84777 15.7742 8.7423 15.3394 8.7967 14.9096L9.48536 9.41211H21.122L22.0579 16.9227Z" fill="#425B72"/>
<path d="M28.0322 7.01056L14.4944 11.7194L0.956543 7.01056L14.4944 2.30176L28.0322 7.01056Z" fill="#374F68"/>
<path d="M25.4951 6.12766L14.4941 9.95357L3.49316 6.12766L14.4941 2.30176L25.4951 6.12766Z" fill="#425B72"/>
<path d="M3.3108 12.3079V8.03466C3.31006 7.88823 3.36393 7.74679 3.46189 7.63795C3.55984 7.52912 3.69485 7.4607 3.84054 7.44606L13.2582 6.52784C13.4143 6.51223 13.5702 6.55927 13.6916 6.65862C13.813 6.75796 13.89 6.90147 13.9056 7.05758C13.9212 7.21369 13.8742 7.3696 13.7748 7.49102C13.6755 7.61245 13.532 7.68943 13.3759 7.70504L4.488 8.57028V12.3079C4.488 12.464 4.42599 12.6137 4.3156 12.7241C4.20522 12.8345 4.05551 12.8965 3.8994 12.8965C3.74329 12.8965 3.59358 12.8345 3.4832 12.7241C3.37281 12.6137 3.3108 12.464 3.3108 12.3079Z" fill="#FFDE76"/>
<path d="M5.07682 13.4853V15.8397H2.72241V13.4853C2.72241 13.1731 2.84644 12.8737 3.06721 12.6529C3.28797 12.4321 3.5874 12.3081 3.89961 12.3081C4.21183 12.3081 4.51125 12.4321 4.73202 12.6529C4.95279 12.8737 5.07682 13.1731 5.07682 13.4853Z" fill="#FFCC66"/>
<path d="M5.07679 13.4853V15.2511C4.60847 15.2511 4.15933 15.0651 3.82818 14.7339C3.49702 14.4028 3.31098 13.9536 3.31098 13.4853C3.26519 13.1248 3.30141 12.7586 3.41693 12.414C3.59602 12.3335 3.7924 12.2991 3.98819 12.3139C4.18398 12.3287 4.37297 12.3922 4.53794 12.4987C4.70291 12.6051 4.83864 12.7512 4.93275 12.9235C5.02686 13.0958 5.07638 13.2889 5.07679 13.4853Z" fill="#FFDE76"/>
<path d="M15.6715 7.01069C15.672 7.22248 15.6153 7.43047 15.5074 7.61274C15.3995 7.795 15.2445 7.94478 15.0586 8.0463C14.8727 8.14782 14.6629 8.19731 14.4512 8.18955C14.2396 8.1818 14.0339 8.11708 13.856 8.00223C13.678 7.88739 13.5344 7.72666 13.4401 7.53699C13.3459 7.34732 13.3045 7.13573 13.3205 6.92454C13.3364 6.71334 13.409 6.51036 13.5307 6.33699C13.6523 6.16361 13.8185 6.02627 14.0117 5.93943C14.1908 5.85893 14.3872 5.8245 14.5829 5.83928C14.7787 5.85405 14.9677 5.91757 15.1327 6.02404C15.2977 6.13052 15.4334 6.27656 15.5275 6.44889C15.6216 6.62121 15.6711 6.81434 15.6715 7.01069Z" fill="#FFCC66"/>
<path d="M15.5656 7.49331C15.3481 7.58998 15.1065 7.61847 14.8725 7.57504C14.6385 7.53161 14.4232 7.41829 14.255 7.25002C14.0867 7.08175 13.9734 6.86643 13.9299 6.63246C13.8865 6.39849 13.915 6.15685 14.0117 5.9394C14.2291 5.84273 14.4708 5.81423 14.7047 5.85766C14.9387 5.90109 15.154 6.01442 15.3223 6.18269C15.4906 6.35096 15.6039 6.56627 15.6473 6.80024C15.6907 7.03421 15.6622 7.27586 15.5656 7.49331Z" fill="#FFDE76"/>
<path d="M26.7903 21.1959L25.6131 21.3961L24.7949 16.7638L25.9721 16.5578C26.2788 16.5047 26.594 16.5752 26.8488 16.7539C27.1035 16.9326 27.2772 17.2049 27.3318 17.5113L27.7438 19.8304C27.7709 19.9827 27.7678 20.1388 27.7345 20.2899C27.7013 20.4409 27.6386 20.5839 27.55 20.7108C27.4615 20.8376 27.3488 20.9457 27.2184 21.029C27.0881 21.1122 26.9426 21.169 26.7903 21.1959Z" fill="#DAD7E5"/>
<path d="M27.7497 19.8834C27.5846 19.9819 27.398 20.0385 27.206 20.0483C27.014 20.0581 26.8226 20.0207 26.6484 19.9394C26.4742 19.8581 26.3225 19.7354 26.2067 19.582C26.0909 19.4286 26.0144 19.2491 25.9839 19.0593L25.5542 16.6284L25.9427 16.5578C26.2493 16.5047 26.5645 16.5752 26.8193 16.7539C27.0741 16.9326 27.2478 17.2049 27.3023 17.5113C27.7615 19.9599 27.7497 19.8245 27.7497 19.8834Z" fill="#EDEBF2"/>
<path d="M4.75889 25.0806L3.58169 25.2807C3.27504 25.3337 2.95985 25.2632 2.70506 25.0845C2.45026 24.9058 2.27659 24.6335 2.22202 24.3271L1.81 22.0081C1.76829 21.7673 1.80255 21.5195 1.90802 21.2991C2.01349 21.0786 2.18494 20.8965 2.3986 20.7779C2.62815 20.6484 2.66347 20.6602 3.92896 20.4424C4.95901 26.246 4.32332 22.6261 4.75889 25.0806Z" fill="#DAD7E5"/>
<path d="M4.57035 24.0388L4.18776 24.08C3.88111 24.133 3.56593 24.0625 3.31113 23.8838C3.05634 23.7051 2.88267 23.4328 2.82809 23.1264C2.39842 20.7073 2.41019 20.8132 2.41019 20.772C2.63974 20.6425 2.67506 20.6543 3.94055 20.4365L4.57035 24.0388Z" fill="#EDEBF2"/>
<path d="M25.719 21.9198C25.7332 22.0002 25.7304 22.0828 25.7109 22.1622C25.6915 22.2416 25.6557 22.316 25.6058 22.3808C25.556 22.4456 25.4932 22.4993 25.4215 22.5385C25.3498 22.5777 25.2707 22.6015 25.1892 22.6084C13.7998 23.4913 16.2601 23.0616 5.58882 26.0694C5.50941 26.0911 5.42633 26.0959 5.34494 26.0835C5.26356 26.0711 5.18569 26.0417 5.11635 25.9974C5.04701 25.953 4.98775 25.8946 4.9424 25.8259C4.89705 25.7572 4.86662 25.6797 4.85306 25.5985C4.22326 22.0316 4.45282 23.3383 3.85244 19.9185C3.83825 19.838 3.84098 19.7554 3.86046 19.6761C3.87994 19.5967 3.91573 19.5222 3.96557 19.4574C4.0154 19.3927 4.07818 19.339 4.14991 19.2998C4.22164 19.2606 4.30074 19.2368 4.38218 19.2298C15.6598 18.4058 13.6056 18.6942 23.9826 15.7689C24.062 15.7472 24.1451 15.7424 24.2265 15.7548C24.3078 15.7672 24.3857 15.7965 24.4551 15.8409C24.5244 15.8853 24.5837 15.9437 24.629 16.0124C24.6744 16.0811 24.7048 16.1586 24.7183 16.2398C25.5718 21.0898 25.5012 20.666 25.719 21.9198Z" fill="#DAD7E5"/>
<path d="M25.6425 21.4842C15.3655 22.2611 17.4962 21.8668 6.76606 24.8922C6.68665 24.9139 6.60357 24.9187 6.52218 24.9063C6.4408 24.8939 6.36293 24.8645 6.29359 24.8202C6.22425 24.7758 6.16499 24.7174 6.11964 24.6487C6.07429 24.58 6.04386 24.5025 6.0303 24.4213C5.4417 20.9662 5.63594 22.1728 5.1062 19.1769C15.3361 18.4117 13.1818 18.8178 23.9826 15.7689C24.062 15.7472 24.1451 15.7424 24.2265 15.7548C24.3079 15.7672 24.3858 15.7965 24.4551 15.8409C24.5244 15.8853 24.5837 15.9437 24.629 16.0124C24.6744 16.0811 24.7048 16.1586 24.7184 16.2398C25.3188 19.6536 25.0892 18.4529 25.6425 21.4842Z" fill="#EDEBF2"/>
<path d="M18.1025 22.1257C17.2314 22.8614 17.4609 22.5083 17.0548 23.6266C15.9365 23.8267 16.3132 23.6266 15.4008 24.3977C14.2825 23.9916 14.7004 24.0386 13.5762 24.2388C12.8463 23.3676 13.1995 23.5972 12.0811 23.1911C11.881 22.0668 12.0811 22.4435 11.3101 21.5312C11.6985 20.4658 11.675 20.8837 11.469 19.7124C12.3813 18.9472 12.1282 19.2828 12.5167 18.2115C13.6174 18.029 13.276 18.2115 14.1707 17.4404C15.289 17.8466 14.8711 17.7995 15.9953 17.5994C16.7252 18.4705 16.372 18.2409 17.4904 18.6471C17.6905 19.7713 17.4904 19.3946 18.2614 20.3069C17.873 21.3723 17.8965 20.9544 18.1025 22.1257Z" fill="#FFCC66"/>
<path d="M17.5492 26.4346L15.7069 26.1579L14.0706 27.0232L13.5762 24.2391C14.7534 24.0331 14.3355 24.0095 15.4008 24.398C16.272 23.6682 15.8835 23.8094 17.0548 23.627C17.5375 26.3345 17.4374 25.7812 17.5492 26.4346Z" fill="#DB5669"/>
<path d="M17.467 25.9402L16.9725 26.0284C16.3583 26.1363 15.7264 25.996 15.2155 25.6385C14.7046 25.281 14.3564 24.7354 14.2473 24.1214C14.6005 24.0566 14.3591 24.0154 15.4245 24.398C16.2956 23.6682 15.9072 23.8094 17.0785 23.627L17.467 25.9402Z" fill="#F26674"/>
<path d="M18.1025 22.1261C17.2608 22.8383 17.4021 22.6735 17.3079 22.9325C16.653 23.1974 15.9337 23.2598 15.2429 23.1117C14.5521 22.9635 13.9217 22.6116 13.433 22.1014C12.9443 21.5912 12.6199 20.9461 12.5017 20.2496C12.3835 19.5531 12.4769 18.8371 12.7698 18.1942C13.6233 18.0471 13.2996 18.1942 14.1707 17.4644C15.289 17.8705 14.8711 17.8234 15.9953 17.6233C16.7252 18.4944 16.3721 18.2649 17.4904 18.671C17.6905 19.7952 17.4904 19.4185 18.2615 20.3308C17.873 21.3727 17.8965 20.9548 18.1025 22.1261Z" fill="#FFDE76"/>
<path d="M15.86 21.4021C15.7768 21.5873 15.647 21.7478 15.4834 21.868C15.3199 21.9882 15.128 22.0641 14.9264 22.0882C14.7248 22.1124 14.5204 22.084 14.3331 22.0058C14.1457 21.9277 13.9817 21.8024 13.8571 21.6421C13.7325 21.4819 13.6514 21.2921 13.6217 21.0913C13.5921 20.8904 13.6149 20.6854 13.6879 20.4959C13.761 20.3065 13.8817 20.1392 14.0385 20.0102C14.1953 19.8813 14.3828 19.795 14.5827 19.7599C14.7934 19.7229 15.0102 19.744 15.2098 19.821C15.4094 19.8979 15.5842 20.0278 15.7156 20.1967C15.8469 20.3655 15.9297 20.5669 15.9552 20.7793C15.9806 20.9917 15.9477 21.207 15.86 21.4021Z" fill="#F16F39"/>
<path d="M15.8599 21.4022C15.642 21.498 15.4003 21.5256 15.1665 21.4813C14.9327 21.437 14.7178 21.3229 14.5501 21.1539C14.3825 20.985 14.27 20.7693 14.2275 20.5351C14.1849 20.301 14.2143 20.0595 14.3118 19.8424C14.5296 19.7465 14.7714 19.719 15.0052 19.7633C15.239 19.8076 15.4539 19.9217 15.6215 20.0906C15.7892 20.2595 15.9017 20.4753 15.9442 20.7094C15.9868 20.9436 15.9574 21.1851 15.8599 21.4022Z" fill="#F8834B"/>
<path d="M28.2264 7.56394C28.34 7.5227 28.4382 7.44747 28.5076 7.34848C28.577 7.24949 28.6142 7.13154 28.6142 7.01066C28.6142 6.88978 28.577 6.77183 28.5076 6.67283C28.4382 6.57384 28.34 6.49862 28.2264 6.45738C13.5644 1.35421 14.5885 1.64262 14.3001 1.74857L0.762282 6.45738C0.647423 6.49753 0.54783 6.57229 0.477208 6.67137C0.406585 6.77045 0.368405 6.88899 0.36792 7.01066C0.36792 7.56983 0.69165 7.5404 3.31092 8.45273V11.8254C2.96745 11.9469 2.66994 12.1716 2.45918 12.4687C2.24843 12.7659 2.13475 13.121 2.13372 13.4853V15.8397C2.13372 15.9958 2.19574 16.1455 2.30612 16.2559C2.4165 16.3663 2.56622 16.4283 2.72232 16.4283H5.07673C5.23283 16.4283 5.38255 16.3663 5.49293 16.2559C5.60331 16.1455 5.66533 15.9958 5.66533 15.8397V13.4853C5.6643 13.121 5.55062 12.7659 5.33987 12.4687C5.12911 12.1716 4.8316 11.9469 4.48813 11.8254V8.88241L7.22512 9.83006L6.25393 17.5348C6.23679 17.6723 6.26872 17.8115 6.34408 17.9278C6.41945 18.0441 6.53343 18.13 6.66595 18.1705C7.79606 18.5178 8.43175 18.3353 4.31155 18.6414C4.15599 18.6582 4.00533 18.7058 3.86838 18.7814C3.73143 18.8571 3.61093 18.9592 3.51393 19.082C3.41693 19.2048 3.34537 19.3456 3.30344 19.4964C3.26151 19.6471 3.25005 19.8047 3.26972 19.9599C2.62226 20.0717 2.016 20.107 1.53924 20.7839C0.985951 21.5785 1.26259 22.1789 1.65696 24.4215C1.72885 24.83 1.94225 25.2001 2.25974 25.467C2.57723 25.7339 2.97855 25.8806 3.39333 25.8812C3.69466 25.8632 3.99394 25.8199 4.288 25.7517C4.34676 26.0123 4.49239 26.2451 4.70097 26.412C4.90954 26.5788 5.16867 26.6698 5.43577 26.6699C5.6771 26.6699 5.08261 26.8171 13.0405 24.5745C13.6821 28.2297 13.3348 28.1061 15.8128 26.7406L17.4373 27.0231C17.5299 27.0368 17.6245 27.0282 17.7131 26.9981C17.8017 26.9679 17.8819 26.9171 17.9469 26.8497C18.012 26.7824 18.06 26.7005 18.0871 26.6109C18.1141 26.5213 18.1194 26.4265 18.1025 26.3344L17.6551 23.7917L25.2186 23.2031C25.3758 23.1885 25.5283 23.1425 25.6673 23.0678C25.8063 22.9931 25.9289 22.8913 26.0277 22.7683C26.1265 22.6453 26.1996 22.5037 26.2426 22.3519C26.2857 22.2001 26.2977 22.0412 26.2781 21.8846L26.8667 21.7787C27.3269 21.6968 27.7359 21.4359 28.004 21.053C28.2721 20.6702 28.3775 20.1966 28.297 19.7362C27.9027 17.476 27.9439 16.8226 27.1669 16.2752C26.39 15.7278 25.8661 15.9809 25.2598 16.0869C25.2249 15.9316 25.1589 15.785 25.0657 15.6559C24.9725 15.5269 24.854 15.4181 24.7176 15.3361C24.5812 15.2541 24.4295 15.2007 24.2718 15.179C24.1141 15.1573 23.9536 15.1678 23.8001 15.2099L22.464 15.5866L21.74 9.81828L28.2264 7.56394ZM4.48813 15.2511H3.31092V13.4853C3.31092 13.3292 3.37294 13.1794 3.48332 13.0691C3.59371 12.9587 3.74342 12.8967 3.89952 12.8967C4.05563 12.8967 4.20534 12.9587 4.31573 13.0691C4.42611 13.1794 4.48813 13.3292 4.48813 13.4853V15.2511ZM14.4943 2.92577L26.2664 7.01066L14.4943 11.0955L6.63063 8.36444L12.8992 7.77584C13.0751 8.15317 13.3786 8.45624 13.7562 8.63152C14.1338 8.80681 14.5612 8.84305 14.9629 8.73384C15.3647 8.62464 15.7149 8.37701 15.9518 8.03467C16.1887 7.69234 16.297 7.27732 16.2576 6.86288C16.2182 6.44844 16.0337 6.06124 15.7366 5.76964C15.4395 5.47804 15.0489 5.30078 14.6338 5.26918C14.2187 5.23757 13.8058 5.35364 13.4679 5.59689C13.1301 5.84015 12.8891 6.19494 12.7874 6.59864L3.95838 7.45211L2.72232 7.01066L14.4943 2.92577ZM13.9057 7.01066C13.9057 6.85455 13.9678 6.70484 14.0781 6.59446C14.1885 6.48407 14.3382 6.42206 14.4943 6.42206C14.6504 6.42206 14.8002 6.48407 14.9105 6.59446C15.0209 6.70484 15.0829 6.85455 15.0829 7.01066C15.0829 7.16677 15.0209 7.31648 14.9105 7.42686C14.8002 7.53725 14.6504 7.59926 14.4943 7.59926C14.3382 7.59926 14.1885 7.53725 14.0781 7.42686C13.9678 7.31648 13.9057 7.16677 13.9057 7.01066ZM14.2883 18.1117C14.5071 18.245 14.7537 18.326 15.0089 18.3485C15.2642 18.3709 15.5211 18.3342 15.7598 18.2412C16.3484 18.9357 16.1306 18.7827 16.9723 19.0887C17.1254 19.9716 17.0136 19.7362 17.5963 20.4249C17.2843 21.2783 17.3137 21.0135 17.4668 21.8964C16.7781 22.485 16.9253 22.2613 16.6192 23.103C15.7245 23.2619 15.9658 23.156 15.2831 23.7269C14.4178 23.415 14.6945 23.4444 13.8116 23.5974C13.223 22.9147 13.4466 23.0618 12.599 22.7557C12.4401 21.8552 12.552 22.0965 11.9751 21.4137C12.2812 20.572 12.2635 20.8251 12.1046 19.9422C12.8051 19.3536 12.6461 19.5714 12.9522 18.765C13.8469 18.5767 13.6056 18.6826 14.2883 18.1117ZM2.41036 21.9081C2.3968 21.832 2.39838 21.7539 2.41501 21.6784C2.43163 21.6029 2.46298 21.5314 2.50726 21.468C2.55153 21.4045 2.60787 21.3505 2.67305 21.3089C2.73823 21.2672 2.81098 21.2389 2.88713 21.2254L3.47573 21.1253C3.85832 23.2678 3.71706 22.4673 4.06433 24.5981C2.65169 24.8511 2.91656 24.7746 2.41036 21.9081ZM5.42989 25.4986C5.26508 24.5686 5.90665 28.165 4.42338 19.8127L11.0334 19.3242C10.7626 19.6244 10.9098 19.9128 11.0334 20.5897C10.7685 21.3254 10.5978 21.5903 10.8686 21.914C11.4572 22.638 11.3394 22.3143 11.5101 23.2914C11.5267 23.3787 11.5629 23.4611 11.6159 23.5325C11.6689 23.6038 11.7374 23.6623 11.8162 23.7034L5.42989 25.4986ZM14.4943 26.1166L14.2471 24.7158L14.4473 24.6805C15.6245 25.1219 15.4008 25.1513 16.372 24.345L16.5662 24.3096L16.8487 25.7105C15.3478 25.4868 15.8128 25.4103 14.4943 26.1166ZM26.0721 17.1346C26.1483 17.121 26.2263 17.1226 26.3019 17.1392C26.3774 17.1559 26.4489 17.1872 26.5123 17.2315C26.5757 17.2758 26.6298 17.3321 26.6714 17.3973C26.713 17.4625 26.7414 17.5352 26.7549 17.6114L27.161 19.9599C27.1746 20.036 27.173 20.1141 27.1564 20.1896C27.1398 20.2651 27.1084 20.3367 27.0641 20.4001C27.0199 20.4635 26.9635 20.5175 26.8983 20.5592C26.8332 20.6008 26.7604 20.6292 26.6843 20.6427L26.0957 20.7486L25.5071 17.27L26.0721 17.1346ZM24.1415 16.34C24.2592 17.0345 23.7354 14.0562 25.148 22.0259L18.538 22.5144C18.7852 22.2378 18.6793 22.0082 18.538 21.2489C18.8264 20.4543 18.9677 20.2424 18.7028 19.9304C18.1142 19.2006 18.232 19.5243 18.0613 18.5472C18.0447 18.4599 18.0085 18.3775 17.9555 18.3061C17.9025 18.2347 17.834 18.1763 17.7552 18.1352L24.1415 16.34ZM21.3398 15.9044C15.9717 17.4171 16.5074 17.2935 16.4426 17.2229C16.1895 16.9168 15.96 17.011 15.1124 17.1581C14.3178 16.8697 14.1059 16.7285 13.7939 16.9933C13.0699 17.5819 13.3937 17.4642 12.4107 17.6349C12.3067 17.6539 12.2097 17.7005 12.13 17.7699C12.0502 17.8393 11.9906 17.9289 11.9575 18.0293C10.4456 17.8834 8.95022 17.5997 7.48999 17.1817L8.36112 10.2068C14.8534 12.467 14.3531 12.3081 14.4943 12.3081C14.6356 12.3081 14.1353 12.467 20.6276 10.2068L21.3398 15.9044Z" fill="black"/>
<path d="M14.7826 22.6852C15.0145 22.6651 15.2402 22.5995 15.4467 22.4922C15.6533 22.3849 15.8367 22.238 15.9864 22.0598C16.1362 21.8816 16.2494 21.6757 16.3196 21.4538C16.3897 21.2318 16.4155 20.9982 16.3954 20.7664C16.3753 20.5345 16.3097 20.3088 16.2024 20.1023C16.0951 19.8957 15.9482 19.7123 15.77 19.5626C15.5918 19.4128 15.3859 19.2996 15.164 19.2294C14.942 19.1593 14.7085 19.1335 14.4766 19.1536C14.0082 19.1942 13.5752 19.4191 13.2728 19.779C12.9703 20.1388 12.8232 20.6041 12.8638 21.0724C12.9044 21.5408 13.1294 21.9738 13.4892 22.2762C13.8491 22.5787 14.3143 22.7258 14.7826 22.6852ZM14.6826 20.3308C14.7599 20.3173 14.8391 20.3191 14.9157 20.3362C14.9923 20.3533 15.0647 20.3853 15.129 20.4304C15.1932 20.4754 15.2479 20.5327 15.29 20.599C15.332 20.6652 15.3607 20.7391 15.3742 20.8164C15.3877 20.8937 15.3859 20.9729 15.3688 21.0495C15.3517 21.1261 15.3197 21.1985 15.2746 21.2628C15.2295 21.327 15.1722 21.3817 15.106 21.4238C15.0398 21.4659 14.9659 21.4945 14.8886 21.508C14.734 21.5353 14.575 21.5001 14.4464 21.4102C14.3178 21.3202 14.2302 21.1828 14.2029 21.0283C14.1755 20.8737 14.2107 20.7147 14.3007 20.5861C14.3907 20.4575 14.528 20.3699 14.6826 20.3426V20.3308Z" fill="black"/>
</g>
<defs>
<clipPath id="clip0_2056_8279">
<rect width="28.2528" height="28.2528" fill="white" transform="translate(0.36792 0.536133)"/>
</clipPath>
</defs>
</svg>
