<svg width="27" height="26" viewBox="0 0 27 26" fill="none" xmlns="http://www.w3.org/2000/svg">
<path fill-rule="evenodd" clip-rule="evenodd" d="M13.4996 12.5761C14.6572 12.5761 15.5956 11.6377 15.5956 10.4801C15.5956 9.3225 14.6572 8.38409 13.4996 8.38409C12.342 8.38409 11.4036 9.3225 11.4036 10.4801C11.4036 11.6377 12.342 12.5761 13.4996 12.5761ZM13.4996 14.6721C15.8148 14.6721 17.6916 12.7952 17.6916 10.4801C17.6916 8.16491 15.8148 6.28809 13.4996 6.28809C11.1844 6.28809 9.30762 8.16491 9.30762 10.4801C9.30762 12.7952 11.1844 14.6721 13.4996 14.6721Z" fill="#4E4E4F"/>
<path fill-rule="evenodd" clip-rule="evenodd" d="M20.3732 20.4873C22.5828 18.5659 23.9795 15.7342 23.9795 12.5762C23.9795 6.78825 19.2874 2.09619 13.4995 2.09619C7.71159 2.09619 3.01953 6.78825 3.01953 12.5762C3.01953 15.7342 4.41635 18.5659 6.62587 20.4873C8.46591 22.0874 10.8696 23.0562 13.4995 23.0562C16.0317 23.0562 18.3542 22.1581 20.1658 20.6631C20.2357 20.6053 20.3048 20.5468 20.3732 20.4873ZM13.7698 20.9559C13.6801 20.9587 13.59 20.9602 13.4995 20.9602C13.4905 20.9602 13.4814 20.9602 13.4724 20.9602C13.3881 20.9599 13.3041 20.9584 13.2204 20.9556C11.8137 20.9096 10.4946 20.5171 9.34584 19.8606C10.305 18.616 11.8104 17.8162 13.4995 17.8162C15.1887 17.8162 16.694 18.616 17.6532 19.8606C16.5021 20.5185 15.1798 20.9113 13.7698 20.9559ZM19.3289 18.602C17.9883 16.85 15.8759 15.7202 13.4995 15.7202C11.1232 15.7202 9.01074 16.85 7.67013 18.602C6.09486 17.0777 5.11553 14.9413 5.11553 12.5762C5.11553 7.94583 8.86917 4.19219 13.4995 4.19219C18.1299 4.19219 21.8835 7.94583 21.8835 12.5762C21.8835 14.9413 20.9042 17.0777 19.3289 18.602Z" fill="#4E4E4F"/>
</svg>
