<svg width="24" height="25" viewBox="0 0 24 25" fill="none" xmlns="http://www.w3.org/2000/svg">
<mask id="mask0_293_4591" style="mask-type:luminance" maskUnits="userSpaceOnUse" x="0" y="0" width="24" height="25">
<path d="M0 0.576242H23.9999V24.5762H0V0.576242Z" fill="white"/>
</mask>
<g mask="url(#mask0_293_4591)">
<path d="M14.1738 20.9248H19.7271C20.8785 20.9248 21.812 19.9913 21.812 18.8399V17.6816" stroke="#060461" stroke-miterlimit="10" stroke-linecap="round" stroke-linejoin="round"/>
<path d="M21.812 9.50061V7.99475C21.812 6.84332 20.8785 5.90985 19.7271 5.90985H2.43646C1.28503 5.90985 0.351562 6.84332 0.351562 7.99475V18.8399C0.351562 19.9913 1.28503 20.9248 2.43646 20.9248H7.52342" stroke="#060461" stroke-miterlimit="10" stroke-linecap="round" stroke-linejoin="round"/>
<path d="M0.351562 9.44468C0.351562 11.5312 2.04299 13.2227 4.12954 13.2227H4.17294" stroke="#060461" stroke-miterlimit="10" stroke-linecap="round" stroke-linejoin="round"/>
<path d="M6.12109 13.2227H12.7117" stroke="#060461" stroke-miterlimit="10" stroke-linecap="round" stroke-linejoin="round"/>
<path d="M10.8123 22.5136L13.6792 19.6466C13.7183 19.6076 13.7493 19.5612 13.7704 19.5101C13.7916 19.4591 13.8025 19.4044 13.8025 19.3492C13.8025 19.2939 13.7916 19.2392 13.7704 19.1882C13.7493 19.1371 13.7183 19.0907 13.6792 19.0517L12.713 18.0854C12.6739 18.0463 12.6275 18.0154 12.5765 17.9942C12.5254 17.9731 12.4707 17.9622 12.4155 17.9622C12.3602 17.9622 12.3055 17.9731 12.2545 17.9942C12.2035 18.0154 12.1571 18.0463 12.118 18.0854L9.25107 20.9524C8.81996 21.3835 8.81996 22.0825 9.25107 22.5136C9.68222 22.9447 10.3812 22.9447 10.8123 22.5136Z" stroke="#060461" stroke-miterlimit="10" stroke-linecap="round" stroke-linejoin="round"/>
<path d="M11.4863 18.7171L13.0475 20.2783" stroke="#060461" stroke-miterlimit="10" stroke-linecap="round" stroke-linejoin="round"/>
<path d="M22.0446 17.462C19.9068 19.5999 16.4405 19.5999 14.3027 17.462C12.1647 15.3242 12.1647 11.8579 14.3027 9.72004C16.4405 7.58212 19.9068 7.58212 22.0446 9.72004C24.1826 11.8579 24.1826 15.3242 22.0446 17.462Z" stroke="#060461" stroke-miterlimit="10" stroke-linecap="round" stroke-linejoin="round"/>
<path d="M21.956 14.4172C21.8037 15.1175 21.4554 15.7837 20.911 16.3281C19.3993 17.8398 16.9482 17.8398 15.4365 16.3281C13.9248 14.8164 13.9248 12.3654 15.4365 10.8537C16.9482 9.34199 19.3993 9.34199 20.911 10.8537C21.4549 11.3976 21.8031 12.063 21.9556 12.7626" stroke="#060461" stroke-miterlimit="10" stroke-linecap="round" stroke-linejoin="round"/>
<path d="M5.14812 15.8174C4.61005 15.8174 4.17383 15.3812 4.17383 14.8431V12.5788C4.17383 12.0408 4.61005 11.6046 5.14812 11.6046C5.6862 11.6046 6.12242 12.0408 6.12242 12.5788V14.8431C6.12242 15.3812 5.6862 15.8174 5.14812 15.8174Z" stroke="#060461" stroke-miterlimit="10" stroke-linecap="round" stroke-linejoin="round"/>
<path d="M6.12242 14.1133H4.17383" stroke="#060461" stroke-miterlimit="10" stroke-linecap="round" stroke-linejoin="round"/>
<path d="M15.1024 5.90918V4.33315C15.1024 3.21983 14.1966 2.31407 13.0832 2.31407H9.08164C7.96826 2.31407 7.0625 3.21983 7.0625 4.33315V5.90918" stroke="#060461" stroke-miterlimit="10" stroke-linecap="round" stroke-linejoin="round"/>
<path d="M8.51562 5.90918V4.33315C8.51562 4.02106 8.76955 3.76719 9.08164 3.76719H13.0833C13.3953 3.76719 13.6493 4.02106 13.6493 4.33315V5.90918" stroke="#060461" stroke-miterlimit="10" stroke-linecap="round" stroke-linejoin="round"/>
</g>
</svg>
