<svg width="31" height="31" viewBox="0 0 31 31" fill="none" xmlns="http://www.w3.org/2000/svg">
<path d="M28.5745 15.9188C28.2574 15.0853 27.4721 14.5477 26.5812 14.5477C26.098 14.5477 25.6238 14.7138 25.2463 15.0158L19.3993 19.694V19.6819C19.3993 18.5161 18.451 17.5678 17.2852 17.5678H13.8423C11.3688 15.9732 7.50908 15.9762 5.03258 17.5678H3.69466C2.52889 17.5678 1.58057 18.5161 1.58057 19.6819V26.9302C1.58057 28.096 2.52889 29.0443 3.69466 29.0443C4.86043 29.0443 5.80875 28.096 5.80875 26.9302V26.6282H17.7987C18.3967 26.6282 18.9705 26.4078 19.4144 26.0091L28.0097 18.2715C28.6742 17.6766 28.8946 16.7524 28.5745 15.9188ZM4.6007 26.9302C4.6007 27.4286 4.19298 27.8363 3.69466 27.8363C3.19634 27.8363 2.78862 27.4286 2.78862 26.9302V19.6819C2.78862 19.1836 3.19634 18.7759 3.69466 18.7759H4.6007V26.9302ZM27.2003 17.3745L18.605 25.1091C18.3846 25.3114 18.0977 25.4202 17.7987 25.4202H5.80875V18.501C7.96512 17.1964 11.2601 17.2507 13.3168 18.6702C13.4165 18.7396 13.5373 18.7759 13.6611 18.7759H17.2852C17.7836 18.7759 18.1913 19.1836 18.1913 19.6819C18.1913 20.1802 17.7836 20.588 17.2852 20.588H13.6611C13.3289 20.588 13.0571 20.8598 13.0571 21.192C13.0571 21.5242 13.3289 21.796 13.6611 21.796H18.4933C18.6292 21.796 18.7621 21.7507 18.8708 21.6631L26.0013 15.9581C26.1644 15.8282 26.3698 15.7557 26.5812 15.7557C27.1732 15.7557 27.3936 16.2118 27.448 16.3507C27.5024 16.4896 27.6413 16.9789 27.2003 17.3745ZM14.8873 12.1316H20.2873C20.553 12.1316 20.7886 11.9564 20.8671 11.7027L22.0933 7.62556C22.1628 7.38999 22.0842 7.1363 21.894 6.98227C21.7037 6.82824 21.4379 6.80408 21.2235 6.92489L19.3027 7.98797L18.1218 5.80442C18.0131 5.60811 17.8077 5.4873 17.5873 5.4873C17.3668 5.4873 17.1614 5.60811 17.0557 5.80442L15.8748 7.98797L13.954 6.92489C13.7396 6.8071 13.4738 6.82824 13.2836 6.98227C13.0933 7.1363 13.0148 7.38999 13.0842 7.62556L14.3104 11.7027C14.3859 11.9564 14.6215 12.1316 14.8873 12.1316ZM15.8235 9.33797C15.9655 9.4165 16.1316 9.43462 16.2856 9.38931C16.4396 9.34401 16.5695 9.23831 16.648 9.09636L17.5903 7.35979L18.5326 9.09636C18.5706 9.16664 18.6221 9.2287 18.6842 9.27894C18.7463 9.32918 18.8178 9.36662 18.8944 9.38908C18.9711 9.41155 19.0515 9.4186 19.1309 9.40983C19.2103 9.40105 19.2871 9.37663 19.3571 9.33797L20.5107 8.6977L19.8373 10.9235H15.3373L14.6668 8.6977L15.8235 9.33797Z" fill="#FFCD7E"/>
<path d="M17.5872 16.3599C21.5828 16.3599 24.8355 13.1072 24.8355 9.1116C24.8355 5.11596 21.5828 1.86328 17.5872 1.86328C13.5915 1.86328 10.3389 5.11596 10.3389 9.1116C10.3389 13.1072 13.5915 16.3599 17.5872 16.3599ZM17.5872 3.07133C20.9184 3.07133 23.6274 5.78039 23.6274 9.1116C23.6274 12.4428 20.9184 15.1519 17.5872 15.1519C14.256 15.1519 11.5469 12.4428 11.5469 9.1116C11.5469 5.78039 14.256 3.07133 17.5872 3.07133Z" fill="#FFCD7E"/>
</svg>
