<svg width="26" height="30" viewBox="0 0 26 30" fill="none" xmlns="http://www.w3.org/2000/svg">
<path fill-rule="evenodd" clip-rule="evenodd" d="M17.1221 8.93644C16.9753 8.81072 16.8052 8.71515 16.6215 8.65519C16.4377 8.59524 16.244 8.57207 16.0513 8.58701C15.8586 8.60195 15.6708 8.65471 15.4985 8.74228C15.3262 8.82985 15.1728 8.9505 15.0472 9.09735L12.2198 12.3959L11.1286 11.1801C10.8673 10.8896 10.5013 10.7149 10.1111 10.6943C9.72098 10.6737 9.33861 10.809 9.04817 11.0703C8.75772 11.3316 8.58298 11.6976 8.56239 12.0878C8.5418 12.4779 8.67704 12.8603 8.93837 13.1508L11.1503 15.614C11.2881 15.7674 11.4568 15.8901 11.6453 15.974C11.8337 16.0578 12.0378 16.101 12.244 16.1007C12.2621 16.1007 12.2805 16.1007 12.2988 16.0999C12.5126 16.0923 12.7222 16.0382 12.913 15.9413C13.1038 15.8444 13.2711 15.7071 13.4034 15.539L17.2842 11.0119C17.5375 10.715 17.6627 10.3298 17.6324 9.94073C17.6021 9.55164 17.4187 9.19047 17.1224 8.93644H17.1221ZM25.3357 10.4704C25.2579 10.0024 25.061 9.56224 24.7638 9.19239C24.4665 8.82254 24.0791 8.53547 23.6387 8.35881L23.1757 8.16782C22.7803 8.00866 22.4497 7.72161 22.2366 7.3525C22.0235 6.9834 21.9402 6.55353 22.0001 6.13156L22.0663 5.63491C22.1286 5.16556 22.0714 4.68808 21.9001 4.24671C21.7287 3.80534 21.4487 3.41438 21.086 3.11005C20.7233 2.80572 20.2896 2.59788 19.8252 2.50578C19.3608 2.41369 18.8806 2.44033 18.4292 2.58323L17.9515 2.73417C17.5463 2.86637 17.1085 2.859 16.708 2.71325C16.3074 2.56749 15.9673 2.29175 15.7419 1.93004L15.4734 1.50724C15.2194 1.10762 14.8686 0.778585 14.4536 0.550616C14.0386 0.322647 13.5727 0.203125 13.0992 0.203125C12.6257 0.203125 12.1599 0.322647 11.7449 0.550616C11.3299 0.778585 10.9791 1.10762 10.7251 1.50724L10.4569 1.93004C10.2314 2.2917 9.89129 2.56742 9.4908 2.71317C9.09031 2.85893 8.65254 2.86632 8.24737 2.73417L7.77012 2.58323C7.31871 2.44027 6.83851 2.41357 6.37403 2.50563C5.90956 2.59769 5.47584 2.80552 5.11308 3.10985C4.75032 3.41419 4.47027 3.80518 4.29887 4.24658C4.12748 4.68799 4.07029 5.16552 4.13262 5.63491L4.1985 6.13156C4.25844 6.55353 4.17522 6.98341 3.96215 7.35254C3.74908 7.72166 3.41844 8.00873 3.02306 8.16787L2.55997 8.35887C2.12223 8.53953 1.73718 8.8278 1.44054 9.19694C1.14389 9.56608 0.945252 10.0041 0.863031 10.4705C0.780811 10.9369 0.817672 11.4165 0.970198 11.8648C1.12272 12.3131 1.38598 12.7157 1.73555 13.0351L2.10526 13.3726C2.42226 13.6575 2.63469 14.0403 2.70864 14.46C2.7826 14.8798 2.71381 15.3122 2.51326 15.6882L2.28145 16.1318C2.06218 16.5516 1.95245 17.02 1.96245 17.4934C1.97245 17.9669 2.10185 18.4302 2.33866 18.8404C2.57546 19.2505 2.91199 19.5942 3.31705 19.8396C3.72211 20.085 4.18257 20.2242 4.65575 20.2442L5.15582 20.2656C5.1583 20.2656 5.15995 20.2662 5.16248 20.2662L2.38237 26.8139C2.34928 26.8923 2.33946 26.9785 2.35408 27.0623C2.3687 27.146 2.40714 27.2239 2.46481 27.2864C2.52247 27.3489 2.59693 27.3935 2.67926 27.4148C2.7616 27.4361 2.84833 27.4333 2.9291 27.4066L6.70481 26.1509L8.42367 29.739C8.45968 29.8142 8.51622 29.8776 8.58675 29.922C8.65728 29.9664 8.73894 29.99 8.82229 29.99H8.83231C8.91749 29.9881 9.00032 29.9617 9.07087 29.9139C9.14141 29.8661 9.19668 29.799 9.23005 29.7206L11.7911 23.6865L11.9237 23.5845C12.2592 23.3217 12.6731 23.1788 13.0993 23.1788C13.5255 23.1788 13.9394 23.3217 14.2749 23.5845L14.4078 23.6865L16.9689 29.7206C17.0022 29.799 17.0574 29.8661 17.1279 29.9139C17.1984 29.9616 17.2812 29.9881 17.3663 29.99H17.3763C17.4597 29.99 17.5413 29.9664 17.6119 29.922C17.6824 29.8776 17.7389 29.8142 17.7749 29.739L19.4938 26.1509L23.2688 27.4066C23.3496 27.4334 23.4364 27.4364 23.5189 27.4151C23.6013 27.3939 23.6759 27.3493 23.7336 27.2867C23.7914 27.2241 23.8299 27.1463 23.8445 27.0624C23.8591 26.9785 23.8493 26.8922 23.8161 26.8138L21.0364 20.2662C21.0387 20.2662 21.0403 20.2656 21.0428 20.2656L21.5429 20.2442C22.016 20.2242 22.4764 20.0851 22.8814 19.8397C23.2865 19.5944 23.623 19.2507 23.8598 18.8406C24.0966 18.4305 24.226 17.9673 24.236 17.4938C24.246 17.0204 24.1363 16.5521 23.9171 16.1324L23.6853 15.6882C23.4847 15.3121 23.4159 14.8797 23.4899 14.46C23.5639 14.0403 23.7763 13.6574 24.0933 13.3726L24.4633 13.0351C24.8166 12.7185 25.0825 12.3162 25.2352 11.867C25.388 11.4178 25.4226 10.9369 25.3356 10.4704H25.3357ZM8.7981 28.4733L7.33441 25.4171C7.28788 25.32 7.20747 25.2431 7.10829 25.201C7.0091 25.1588 6.89795 25.1544 6.7957 25.1884L3.57981 26.2577L6.02053 20.5079C6.25802 20.6405 6.46444 20.8222 6.62598 21.041C6.78752 21.2598 6.90045 21.5105 6.9572 21.7765L7.06532 22.2657C7.16271 22.73 7.37803 23.1614 7.69053 23.5183C8.00304 23.8752 8.40219 24.1456 8.84954 24.3034C9.16269 24.4188 9.49365 24.4783 9.82738 24.4794C10.0659 24.4793 10.3034 24.4476 10.5337 24.385L8.7981 28.4733ZM13.0994 18.9047C11.8013 18.9048 10.5323 18.5199 9.45296 17.7987C8.37362 17.0775 7.53238 16.0525 7.03561 14.8532C6.53884 13.6539 6.40886 12.3342 6.6621 11.0611C6.91535 9.78791 7.54044 8.61844 8.45834 7.70055C9.37625 6.78266 10.5457 6.15757 11.8189 5.90434C13.092 5.6511 14.4117 5.7811 15.611 6.27788C16.8103 6.77466 17.8353 7.61591 18.5565 8.69526C19.2776 9.77461 19.6625 11.0436 19.6625 12.3417C19.6604 14.0817 18.9683 15.7498 17.7379 16.9802C16.5075 18.2106 14.8394 18.9027 13.0994 18.9047ZM22.6188 26.2577L19.4029 25.1884C19.3007 25.1545 19.1896 25.159 19.0905 25.2011C18.9914 25.2432 18.911 25.32 18.8645 25.4171L17.4005 28.4733L15.6652 24.3843C16.0323 24.48 16.4149 24.5008 16.7902 24.4454C17.1655 24.39 17.5258 24.2595 17.8496 24.0618C18.1734 23.8641 18.454 23.6031 18.6747 23.2945C18.8954 22.9859 19.0516 22.636 19.1341 22.2657L19.2413 21.7765C19.2981 21.5105 19.411 21.2597 19.5726 21.0409C19.7341 20.8222 19.9406 20.6404 20.1781 20.5079L22.6188 26.2577Z" fill="#A36A25"/>
</svg>
