<svg width="24" height="23" viewBox="0 0 24 23" fill="none" xmlns="http://www.w3.org/2000/svg">
<path d="M14.1738 19.9248H19.7271C20.8785 19.9248 21.812 18.9913 21.812 17.8399V16.6816" stroke="#4E4E4F" stroke-miterlimit="10" stroke-linecap="round" stroke-linejoin="round"/>
<path d="M21.812 8.50061V6.99475C21.812 5.84332 20.8785 4.90985 19.7271 4.90985H2.43646C1.28503 4.90985 0.351562 5.84332 0.351562 6.99475V17.8399C0.351562 18.9913 1.28503 19.9248 2.43646 19.9248H7.52342" stroke="#4E4E4F" stroke-miterlimit="10" stroke-linecap="round" stroke-linejoin="round"/>
<path d="M0.351562 8.44468C0.351562 10.5312 2.04299 12.2227 4.12954 12.2227H4.17294" stroke="#4E4E4F" stroke-miterlimit="10" stroke-linecap="round" stroke-linejoin="round"/>
<path d="M6.12109 12.2227H12.7117" stroke="#4E4E4F" stroke-miterlimit="10" stroke-linecap="round" stroke-linejoin="round"/>
<path d="M10.8123 21.5136L13.6792 18.6466C13.7183 18.6076 13.7493 18.5612 13.7704 18.5101C13.7916 18.4591 13.8025 18.4044 13.8025 18.3492C13.8025 18.2939 13.7916 18.2392 13.7704 18.1882C13.7493 18.1371 13.7183 18.0907 13.6792 18.0517L12.713 17.0854C12.6739 17.0463 12.6275 17.0154 12.5765 16.9942C12.5254 16.9731 12.4707 16.9622 12.4155 16.9622C12.3602 16.9622 12.3055 16.9731 12.2545 16.9942C12.2035 17.0154 12.1571 17.0463 12.118 17.0854L9.25107 19.9524C8.81996 20.3835 8.81996 21.0825 9.25107 21.5136C9.68222 21.9447 10.3812 21.9447 10.8123 21.5136Z" stroke="#4E4E4F" stroke-miterlimit="10" stroke-linecap="round" stroke-linejoin="round"/>
<path d="M11.4863 17.7171L13.0475 19.2783" stroke="#4E4E4F" stroke-miterlimit="10" stroke-linecap="round" stroke-linejoin="round"/>
<path d="M22.0446 16.462C19.9068 18.5999 16.4405 18.5999 14.3027 16.462C12.1647 14.3242 12.1647 10.8579 14.3027 8.72004C16.4405 6.58212 19.9068 6.58212 22.0446 8.72004C24.1826 10.8579 24.1826 14.3242 22.0446 16.462Z" stroke="#4E4E4F" stroke-miterlimit="10" stroke-linecap="round" stroke-linejoin="round"/>
<path d="M21.956 13.4172C21.8037 14.1175 21.4554 14.7837 20.911 15.3281C19.3993 16.8398 16.9482 16.8398 15.4365 15.3281C13.9248 13.8164 13.9248 11.3654 15.4365 9.85371C16.9482 8.34199 19.3993 8.34199 20.911 9.85371C21.4549 10.3976 21.8031 11.063 21.9556 11.7626" stroke="#4E4E4F" stroke-miterlimit="10" stroke-linecap="round" stroke-linejoin="round"/>
<path d="M5.14715 14.8174C4.60907 14.8174 4.17285 14.3812 4.17285 13.8431V11.5788C4.17285 11.0408 4.60907 10.6046 5.14715 10.6046C5.68522 10.6046 6.12144 11.0408 6.12144 11.5788V13.8431C6.12144 14.3812 5.68522 14.8174 5.14715 14.8174Z" stroke="#4E4E4F" stroke-miterlimit="10" stroke-linecap="round" stroke-linejoin="round"/>
<path d="M6.12144 13.1133H4.17285" stroke="#4E4E4F" stroke-miterlimit="10" stroke-linecap="round" stroke-linejoin="round"/>
<path d="M15.1014 4.90918V3.33315C15.1014 2.21983 14.1956 1.31407 13.0823 1.31407H9.08066C7.96729 1.31407 7.06152 2.21983 7.06152 3.33315V4.90918" stroke="#4E4E4F" stroke-miterlimit="10" stroke-linecap="round" stroke-linejoin="round"/>
<path d="M8.51465 4.90918V3.33315C8.51465 3.02106 8.76857 2.76719 9.08066 2.76719H13.0823C13.3944 2.76719 13.6483 3.02106 13.6483 3.33315V4.90918" stroke="#4E4E4F" stroke-miterlimit="10" stroke-linecap="round" stroke-linejoin="round"/>
</svg>
