<svg width="65" height="65" viewBox="0 0 65 65" fill="none" xmlns="http://www.w3.org/2000/svg">
<circle cx="32.4947" cy="32.647" r="31.6627" fill="#F7F6FC"/>
<g clip-path="url(#clip0_1351_10928)">
<path d="M23.6998 13.5547H42.584C43.7975 13.5547 44.7813 14.5385 44.7813 15.752V48.2442C44.7813 49.4577 43.7975 50.4415 42.584 50.4415H17.961C16.7474 50.4415 15.7637 49.4577 15.7637 48.2442V21.4909C15.7637 21.2023 15.8205 20.9166 15.9309 20.65C16.0414 20.3834 16.2032 20.1412 16.4073 19.9371L22.1461 14.1983C22.3501 13.9943 22.5924 13.8324 22.8589 13.7219C23.1255 13.6115 23.4113 13.5547 23.6998 13.5547Z" fill="#F4FBFF"/>
<path d="M42.5835 13.5547H37.8652C39.0788 13.5547 40.0626 14.5385 40.0626 15.752V48.2442C40.0626 49.4577 39.0788 50.4415 37.8652 50.4415H42.5835C43.7971 50.4415 44.7809 49.4577 44.7809 48.2442V15.7521C44.7809 14.5385 43.7971 13.5547 42.5835 13.5547Z" fill="#E4F6FF"/>
<path d="M16.4071 19.9428L22.146 14.204C22.332 14.0179 22.55 13.8668 22.7896 13.7578V19.2241C22.7896 19.9765 22.1797 20.5864 21.4273 20.5864H15.9609C16.0699 20.3469 16.221 20.1289 16.4071 19.9428Z" fill="#E28086"/>
<path d="M39.3723 20.5789H27.945C27.7617 20.5789 27.5859 20.5061 27.4563 20.3765C27.3267 20.2469 27.2539 20.0711 27.2539 19.8878V18.0817C27.2539 17.8985 27.3267 17.7227 27.4563 17.5931C27.5859 17.4634 27.7617 17.3906 27.945 17.3906H39.3723C39.5556 17.3906 39.7314 17.4634 39.861 17.5931C39.9907 17.7227 40.0635 17.8985 40.0635 18.0817V19.8878C40.0635 20.0711 39.9907 20.2469 39.861 20.3765C39.7314 20.5061 39.5556 20.5789 39.3723 20.5789Z" fill="#CBE2FF"/>
<path d="M47.1507 46.2412L45.1095 44.9846C45.011 44.924 44.8976 44.8919 44.7819 44.8919C44.6663 44.8919 44.5529 44.924 44.4544 44.9846L42.4132 46.2412C41.9969 46.4975 41.4609 46.198 41.4609 45.7092V37.625H48.103V45.7091C48.1029 46.1979 47.5669 46.4974 47.1507 46.2412Z" fill="#E8AE4D"/>
<path d="M46.1018 26.4132C46.307 26.6783 46.5872 26.8755 46.906 26.9791C47.2248 27.0827 47.5675 27.0879 47.8892 26.994C48.9373 26.6881 49.9919 27.4544 50.0249 28.5456C50.035 28.8807 50.1458 29.2049 50.3429 29.4761C50.5399 29.7473 50.814 29.9529 51.1296 30.066C52.1572 30.4347 52.5601 31.6744 51.9453 32.5766C51.7566 32.8537 51.6556 33.1811 51.6556 33.5163C51.6556 33.8515 51.7566 34.179 51.9453 34.456C52.56 35.3582 52.1572 36.598 51.1296 36.9666C50.814 37.0798 50.5399 37.2854 50.3429 37.5566C50.1458 37.8277 50.035 38.152 50.0249 38.4871C49.9919 39.5783 48.9373 40.3445 47.8892 40.0387C47.5675 39.9448 47.2248 39.95 46.906 40.0535C46.5872 40.1571 46.307 40.3543 46.1018 40.6194C45.4337 41.4829 44.1301 41.4829 43.462 40.6194C43.2569 40.3543 42.9766 40.1571 42.6578 40.0535C42.339 39.95 41.9964 39.9448 41.6746 40.0387C40.6266 40.3445 39.572 39.5783 39.539 38.4871C39.5288 38.152 39.418 37.8277 39.221 37.5566C39.024 37.2854 38.7498 37.0798 38.4343 36.9666C37.4067 36.598 37.0038 35.3582 37.6186 34.456C37.8073 34.179 37.9082 33.8515 37.9082 33.5163C37.9082 33.1811 37.8073 32.8537 37.6186 32.5766C37.0039 31.6744 37.4067 30.4346 38.4343 30.066C38.7498 29.9529 39.024 29.7473 39.221 29.4761C39.418 29.2049 39.5288 28.8807 39.539 28.5456C39.572 27.4544 40.6266 26.6881 41.6746 26.994C41.9964 27.0879 42.339 27.0827 42.6578 26.9791C42.9766 26.8755 43.2569 26.6783 43.462 26.4132C44.1301 25.5498 45.4336 25.5498 46.1018 26.4132Z" fill="#FFE07D"/>
<path d="M51.944 34.456C51.7552 34.179 51.6543 33.8515 51.6543 33.5163C51.6543 33.1811 51.7552 32.8537 51.944 32.5766C52.5587 31.6744 52.1559 30.4346 51.1282 30.066C50.8127 29.9529 50.5386 29.7473 50.3415 29.4761C50.1445 29.2049 50.0337 28.8807 50.0236 28.5456C49.9905 27.4544 48.936 26.6881 47.8879 26.994C47.5661 27.0879 47.2235 27.0827 46.9047 26.9791C46.5859 26.8755 46.3057 26.6783 46.1005 26.4132C45.4324 25.5498 44.1288 25.5498 43.4607 26.4132C43.3682 26.5328 43.2599 26.6393 43.1387 26.7297C45.715 27.9033 47.5059 30.5007 47.5059 33.5163C47.5059 36.532 45.715 39.1294 43.1387 40.303C43.2599 40.3933 43.3682 40.4998 43.4607 40.6194C44.1288 41.4829 45.4324 41.4829 46.1005 40.6194C46.3057 40.3543 46.5859 40.1571 46.9047 40.0535C47.2235 39.95 47.5661 39.9448 47.8879 40.0387C48.936 40.3445 49.9905 39.5783 50.0236 38.4871C50.0337 38.152 50.1445 37.8278 50.3416 37.5566C50.5386 37.2854 50.8127 37.0798 51.1282 36.9666C52.1559 36.598 52.5587 35.3582 51.944 34.456Z" fill="#FFD064"/>
<path d="M44.7822 37.623C47.0512 37.623 48.8906 35.7836 48.8906 33.5146C48.8906 31.2456 47.0512 29.4062 44.7822 29.4062C42.5132 29.4062 40.6738 31.2456 40.6738 33.5146C40.6738 35.7836 42.5132 37.623 44.7822 37.623Z" fill="#E8AE4D"/>
<path d="M48.8893 33.5179C48.8893 31.8657 47.914 30.4414 46.5078 29.7891C47.1428 30.8859 47.5061 32.1595 47.5061 33.5179C47.5061 34.8763 47.1427 36.1499 46.5078 37.2467C47.914 36.5944 48.8893 35.17 48.8893 33.5179Z" fill="#E5A32E"/>
<path d="M16.4071 19.9428L22.146 14.204C22.332 14.0179 22.55 13.8668 22.7896 13.7578V19.2241C22.7896 19.9765 22.1797 20.5864 21.4273 20.5864H15.9609C16.0699 20.3469 16.221 20.1289 16.4071 19.9428Z" fill="#E28086"/>
<path d="M34.2046 26.4695H19.9558C19.8097 26.4718 19.6705 26.5315 19.568 26.6356C19.4656 26.7398 19.4082 26.88 19.4082 27.026C19.4082 27.1721 19.4656 27.3123 19.568 27.4164C19.6705 27.5205 19.8097 27.5802 19.9558 27.5826H34.2046C34.2785 27.5838 34.3519 27.5703 34.4204 27.5428C34.489 27.5154 34.5514 27.4746 34.6041 27.4228C34.6567 27.371 34.6986 27.3092 34.7271 27.2411C34.7556 27.173 34.7703 27.0998 34.7703 27.026C34.7703 26.9521 34.7556 26.879 34.7271 26.8109C34.6985 26.7428 34.6567 26.681 34.604 26.6292C34.5514 26.5774 34.4889 26.5366 34.4204 26.5092C34.3518 26.4817 34.2784 26.4682 34.2046 26.4695ZM34.2046 30.3805H19.9558C19.8097 30.3829 19.6705 30.4426 19.568 30.5467C19.4656 30.6508 19.4082 30.791 19.4082 30.9371C19.4082 31.0831 19.4656 31.2233 19.568 31.3274C19.6705 31.4315 19.8097 31.4912 19.9558 31.4936H34.2046C34.2785 31.4948 34.3519 31.4813 34.4204 31.4539C34.489 31.4264 34.5514 31.3856 34.6041 31.3338C34.6567 31.282 34.6986 31.2203 34.7271 31.1521C34.7556 31.084 34.7703 31.0109 34.7703 30.937C34.7703 30.8632 34.7556 30.79 34.7271 30.7219C34.6985 30.6538 34.6567 30.592 34.604 30.5402C34.5514 30.4884 34.4889 30.4476 34.4204 30.4202C34.3518 30.3928 34.2784 30.3793 34.2046 30.3805ZM34.2046 34.2914H19.9558C19.8097 34.2938 19.6705 34.3535 19.568 34.4576C19.4656 34.5618 19.4082 34.702 19.4082 34.848C19.4082 34.9941 19.4656 35.1343 19.568 35.2384C19.6705 35.3425 19.8097 35.4022 19.9558 35.4046H34.2046C34.2785 35.4058 34.3519 35.3923 34.4204 35.3648C34.489 35.3374 34.5514 35.2966 34.6041 35.2448C34.6567 35.193 34.6986 35.1312 34.7271 35.0631C34.7556 34.995 34.7703 34.9218 34.7703 34.848C34.7703 34.7741 34.7556 34.701 34.7271 34.6329C34.6985 34.5647 34.6567 34.503 34.604 34.4512C34.5514 34.3994 34.4889 34.3586 34.4204 34.3312C34.3518 34.3037 34.2784 34.2902 34.2046 34.2914ZM34.7612 38.7591C34.7612 38.686 34.7468 38.6136 34.7189 38.5461C34.6909 38.4786 34.6499 38.4172 34.5982 38.3655C34.5465 38.3139 34.4852 38.2729 34.4176 38.2449C34.3501 38.2169 34.2777 38.2025 34.2046 38.2026H19.9558C19.8097 38.2049 19.6705 38.2646 19.568 38.3687C19.4656 38.4729 19.4082 38.6131 19.4082 38.7591C19.4082 38.9052 19.4656 39.0454 19.568 39.1495C19.6705 39.2536 19.8097 39.3133 19.9558 39.3157H34.2046C34.2777 39.3157 34.3501 39.3013 34.4176 39.2733C34.4852 39.2454 34.5465 39.2044 34.5982 39.1527C34.6499 39.101 34.6909 39.0396 34.7189 38.9721C34.7468 38.9046 34.7612 38.8322 34.7612 38.7591ZM19.9558 43.9342C19.8097 43.9366 19.6705 43.9963 19.568 44.1004C19.4656 44.2045 19.4082 44.3448 19.4082 44.4908C19.4082 44.6369 19.4656 44.7771 19.568 44.8812C19.6705 44.9853 19.8097 45.045 19.9558 45.0474H27.0984C27.2445 45.045 27.3837 44.9853 27.4861 44.8812C27.5886 44.7771 27.646 44.6369 27.646 44.4908C27.646 44.3448 27.5886 44.2045 27.4861 44.1004C27.3837 43.9963 27.2445 43.9366 27.0984 43.9342H19.9558ZM40.6186 19.8897V18.0837C40.6186 17.3957 40.0589 16.8359 39.3709 16.8359H27.9436C27.2556 16.8359 26.6959 17.3957 26.6959 18.0837V19.8897C26.6959 20.5777 27.2556 21.1374 27.9436 21.1374H28.9086C29.0547 21.135 29.1939 21.0754 29.2963 20.9712C29.3988 20.8671 29.4562 20.7269 29.4562 20.5809C29.4562 20.4348 29.3988 20.2946 29.2963 20.1905C29.1939 20.0864 29.0547 20.0267 28.9086 20.0243H27.9436C27.908 20.0243 27.8738 20.0101 27.8486 19.9849C27.8234 19.9597 27.8092 19.9255 27.8091 19.8898V18.0837C27.8091 18.0096 27.8695 17.9491 27.9436 17.9491H39.3709C39.4451 17.9491 39.5054 18.0095 39.5054 18.0837V19.8897C39.5054 19.9639 39.4451 20.0242 39.3709 20.0242H31.5107C31.3647 20.0266 31.2254 20.0863 31.123 20.1904C31.0206 20.2945 30.9632 20.4347 30.9632 20.5808C30.9632 20.7268 31.0206 20.8671 31.123 20.9712C31.2254 21.0753 31.3647 21.135 31.5107 21.1374H39.3709C40.0589 21.1375 40.6186 20.5777 40.6186 19.8897Z" fill="black"/>
<path d="M44.7813 46.9399C44.6337 46.94 44.4921 46.9986 44.3877 47.103C44.2834 47.2073 44.2247 47.3489 44.2247 47.4965V48.246C44.2247 49.1507 43.4887 49.8868 42.5839 49.8868H17.9609C17.0563 49.8868 16.3202 49.1508 16.3202 48.246V21.4927C16.3202 21.3722 16.3343 21.2541 16.3594 21.1391H21.4273C22.4854 21.1391 23.3462 20.2783 23.3462 19.2203V14.1525C23.4622 14.1267 23.5808 14.1135 23.6997 14.1132H42.5838C43.4885 14.1132 44.2246 14.8492 44.2246 15.754V23.1641C44.227 23.3101 44.2867 23.4494 44.3908 23.5518C44.4949 23.6543 44.6351 23.7117 44.7812 23.7117C44.9273 23.7117 45.0675 23.6543 45.1716 23.5518C45.2757 23.4494 45.3354 23.3101 45.3378 23.1641V15.7539C45.3378 14.2354 44.1024 13 42.5839 13H23.6997C22.9642 13 22.2725 13.2865 21.7524 13.8066L16.0136 19.5454C15.4934 20.0656 15.207 20.7571 15.207 21.4928V48.2461C15.207 49.7646 16.4424 51 17.9609 51H42.5839C44.1024 51 45.3378 49.7646 45.3378 48.2461V47.4966C45.3378 47.349 45.2792 47.2074 45.1748 47.103C45.0705 46.9986 44.9289 46.94 44.7813 46.9399ZM22.233 14.9003V19.2203C22.233 19.6645 21.8716 20.026 21.4273 20.026H17.1073L22.233 14.9003Z" fill="black"/>
<path d="M52.4038 32.892C52.7945 32.3185 52.8956 31.6111 52.6812 30.9512C52.4668 30.2912 51.9691 29.7784 51.316 29.5441C50.8827 29.3887 50.5936 28.9909 50.5798 28.5307C50.5588 27.8372 50.2248 27.2054 49.6633 26.7975C49.102 26.3897 48.3978 26.2673 47.7319 26.4616C47.2897 26.5906 46.8224 26.4386 46.5406 26.0745C46.116 25.5257 45.4745 25.2109 44.7805 25.2109C44.0866 25.2109 43.445 25.5257 43.0203 26.0745C42.7386 26.4387 42.271 26.5904 41.8291 26.4616C41.1632 26.2671 40.4591 26.3897 39.8976 26.7975C39.3362 27.2054 39.0023 27.8371 38.9812 28.5307C38.9673 28.9908 38.6783 29.3886 38.245 29.5441C37.5918 29.7783 37.0942 30.2912 36.8799 30.9511C36.6654 31.611 36.7665 32.3185 37.1572 32.8919C37.4164 33.2724 37.4164 33.7641 37.1572 34.1445C36.7665 34.718 36.6654 35.4254 36.8799 36.0853C37.0942 36.7453 37.5918 37.2581 38.245 37.4924C38.6783 37.6479 38.9674 38.0457 38.9812 38.5058C38.9971 39.0318 39.1989 39.5351 39.5507 39.9265C39.9025 40.3178 40.3816 40.5718 40.903 40.6433V45.7108C40.9031 45.921 40.9592 46.1273 41.0656 46.3086C41.1719 46.4899 41.3247 46.6395 41.5081 46.7421C41.6917 46.8445 41.8992 46.8961 42.1093 46.8917C42.3194 46.8872 42.5246 46.8269 42.7036 46.7168L44.745 45.4601C44.7782 45.4396 44.798 45.4488 44.8164 45.4601L46.8576 46.7168C47.0367 46.8269 47.2418 46.8872 47.4519 46.8917C47.6621 46.8961 47.8696 46.8444 48.0531 46.742C48.2366 46.6394 48.3893 46.4898 48.4957 46.3085C48.6021 46.1273 48.6582 45.9209 48.6583 45.7107V40.6432C49.1796 40.5717 49.6588 40.3177 50.0106 39.9264C50.3624 39.5351 50.5642 39.0317 50.58 38.5057C50.5939 38.0456 50.8829 37.6478 51.3162 37.4924C51.9694 37.2581 52.4671 36.7452 52.6814 36.0852C52.8958 35.4253 52.7947 34.7179 52.404 34.1444C52.1446 33.7641 52.1446 33.2725 52.4038 32.892ZM47.441 45.7689L45.3997 44.5122C45.2135 44.3976 44.9991 44.3369 44.7805 44.3369C44.5618 44.3369 44.3475 44.3976 44.1612 44.5122L42.1199 45.7688C42.1096 45.7753 42.0978 45.7789 42.0856 45.7792C42.0734 45.7796 42.0614 45.7766 42.0508 45.7706C42.0401 45.7647 42.0313 45.756 42.0252 45.7455C42.0191 45.7349 42.0159 45.7229 42.0161 45.7107V40.5376C42.3988 40.4933 42.7782 40.649 43.0203 40.962C43.4451 41.5108 44.0866 41.8255 44.7806 41.8255C45.4745 41.8255 46.116 41.5108 46.5406 40.962C46.7829 40.649 47.1623 40.4933 47.5449 40.5376V45.7107C47.5451 45.7229 47.5419 45.7349 47.5358 45.7455C47.5297 45.756 47.5209 45.7647 47.5103 45.7707C47.4996 45.7766 47.4876 45.7796 47.4754 45.7793C47.4632 45.779 47.4513 45.7754 47.441 45.7689ZM51.4839 34.7714C51.6792 35.0581 51.7297 35.4116 51.6225 35.7414C51.5154 36.0712 51.2666 36.3276 50.9402 36.4447C50.0731 36.7557 49.495 37.5515 49.4671 38.4722C49.4573 38.7959 49.315 39.0876 49.0666 39.2938C48.7873 39.5256 48.4091 39.613 48.0438 39.5064C47.1596 39.2484 46.2239 39.5524 45.6602 40.2808C45.5566 40.4156 45.4233 40.5246 45.2708 40.5995C45.1182 40.6743 44.9504 40.713 44.7804 40.7124C44.6105 40.713 44.4427 40.6743 44.2901 40.5995C44.1375 40.5246 44.0042 40.4156 43.9007 40.2808C43.4703 39.7245 42.823 39.4157 42.1474 39.4157C41.9341 39.4159 41.7219 39.4464 41.5173 39.5064C41.1484 39.6138 40.7713 39.5237 40.4942 39.2937C40.2458 39.0875 40.1036 38.7958 40.0938 38.4722C40.0659 37.5515 39.4878 36.7557 38.6207 36.4446C38.4605 36.3877 38.3157 36.2947 38.1973 36.1727C38.079 36.0508 37.9904 35.9032 37.9384 35.7414C37.8853 35.5799 37.8702 35.4084 37.8942 35.2402C37.9183 35.0719 37.9808 34.9115 38.077 34.7714C38.5956 34.0101 38.5956 33.0265 38.077 32.2652C37.9808 32.1251 37.9183 31.9646 37.8942 31.7964C37.8702 31.6281 37.8853 31.4566 37.9384 31.2951C37.9903 31.1333 38.0789 30.9857 38.1973 30.8637C38.3156 30.7417 38.4605 30.6487 38.6207 30.5919C39.4878 30.2808 40.0659 29.485 40.0938 28.5643C40.0984 28.3944 40.142 28.2279 40.2215 28.0776C40.3009 27.9274 40.4139 27.7975 40.5518 27.6981C40.6889 27.5977 40.8474 27.5304 41.0148 27.5012C41.1823 27.4721 41.3542 27.482 41.5172 27.5301C42.4011 27.7882 43.337 27.4841 43.9007 26.7557C44.0042 26.621 44.1375 26.5119 44.2901 26.437C44.4427 26.3622 44.6105 26.3235 44.7804 26.3241C45.1273 26.3241 45.4479 26.4813 45.6602 26.7557C46.2239 27.4841 47.1593 27.7881 48.0437 27.5301C48.2067 27.4819 48.3786 27.472 48.546 27.5012C48.7135 27.5303 48.8719 27.5976 49.0091 27.698C49.1469 27.7974 49.2599 27.9273 49.3394 28.0775C49.4188 28.2278 49.4625 28.3943 49.4671 28.5642C49.495 29.4849 50.0731 30.2808 50.9402 30.5918C51.1003 30.6486 51.2452 30.7417 51.3636 30.8636C51.4819 30.9856 51.5705 31.1332 51.6225 31.295C51.6756 31.4565 51.6907 31.628 51.6666 31.7963C51.6426 31.9645 51.5801 32.1249 51.4839 32.2651C50.9652 33.0264 50.9652 34.0102 51.4839 34.7714Z" fill="black"/>
<path d="M44.7821 28.8516C42.2099 28.8516 40.1172 30.9442 40.1172 33.5165C40.1172 36.0888 42.2099 38.1815 44.7821 38.1815C47.3543 38.1815 49.447 36.0888 49.447 33.5165C49.447 30.9442 47.3543 28.8516 44.7821 28.8516ZM44.7821 37.0683C42.8236 37.0683 41.2303 35.475 41.2303 33.5166C41.2303 31.5582 42.8236 29.9648 44.7821 29.9648C46.7406 29.9648 48.3339 31.5581 48.3339 33.5166C48.3339 35.4751 46.7405 37.0683 44.7821 37.0683Z" fill="black"/>
</g>
<defs>
<clipPath id="clip0_1351_10928">
<rect width="38" height="38" fill="white" transform="translate(15 13)"/>
</clipPath>
</defs>
</svg>
