<svg width="41" height="41" viewBox="0 0 41 41" fill="none" xmlns="http://www.w3.org/2000/svg">
<g clip-path="url(#clip0_2056_8309)">
<path d="M40.0082 12.7778V32.0048C40.0082 33.0407 39.172 33.8769 38.1361 33.8769H3.18926C2.15338 33.8769 1.31714 33.0407 1.31714 32.0048V12.7778H40.0082Z" fill="white"/>
<path d="M40.0082 12.7791V8.36529C40.0082 7.33144 39.17 6.49316 38.1361 6.49316H3.18926C2.15533 6.49316 1.31714 7.33144 1.31714 8.36529V12.7791H40.0082Z" fill="#FFCD7E"/>
<path d="M11.125 19.3264V20.2713C11.125 21.2349 10.3437 22.0161 9.38008 22.0161C8.41644 22.0161 7.6352 21.2349 7.6352 20.2713V19.3264C7.6352 18.3628 8.41644 17.5815 9.38008 17.5815C10.3438 17.5815 11.125 18.3627 11.125 19.3264ZM13.6563 28.0596C10.8056 29.4106 7.95475 29.4106 5.104 28.0596C5.104 25.6963 7.01943 23.7809 9.37766 23.7809C11.7408 23.7809 13.6563 25.6963 13.6563 28.0596Z" fill="#43C3FF"/>
<path d="M38.1361 5.86914H3.18928C1.81286 5.86914 0.693115 6.98866 0.693115 8.36531C0.693115 16.7303 0.693115 23.7318 0.693115 32.0042C0.693115 33.3809 1.81294 34.5004 3.18928 34.5004H38.1361C39.5125 34.5004 40.6323 33.3809 40.6323 32.0042C40.6323 23.5863 40.6323 17.1492 40.6323 8.36531C40.6323 6.98866 39.5125 5.86914 38.1361 5.86914ZM3.18928 7.11722H38.1361C38.8244 7.11722 39.3842 7.67729 39.3842 8.36531V12.1535H1.9412V8.36531C1.9412 7.67729 2.50096 7.11722 3.18928 7.11722ZM38.1361 33.2524H3.18928C2.50096 33.2524 1.9412 32.6923 1.9412 32.0043V13.4034H39.3843V32.0043C39.3842 32.6923 38.8244 33.2524 38.1361 33.2524Z" fill="#33226E"/>
<path d="M12.2968 10.2608H29.0286C29.3731 10.2608 29.6526 9.98164 29.6526 9.63674C29.6526 9.29183 29.3731 9.0127 29.0286 9.0127H12.2968C11.9522 9.0127 11.6728 9.29183 11.6728 9.63674C11.6728 9.98164 11.9522 10.2608 12.2968 10.2608ZM9.38009 22.64C10.6864 22.64 11.7489 21.5772 11.7489 20.2711V19.3265C11.7489 18.0205 10.6864 16.9577 9.38009 16.9577C8.07381 16.9577 7.01093 18.0205 7.01093 19.3265V20.2711C7.01101 21.5772 8.07381 22.64 9.38009 22.64ZM8.25909 19.3265C8.25909 18.7086 8.7619 18.2057 9.38009 18.2057C9.99805 18.2057 10.5009 18.7086 10.5009 19.3265V20.2711C10.5009 20.8891 9.99805 21.3919 9.38009 21.3919C8.76182 21.3919 8.25909 20.8891 8.25909 20.2711V19.3265ZM9.37736 23.1567C6.67672 23.1567 4.47974 25.3561 4.47974 28.0596C4.47974 28.3009 4.61868 28.5203 4.83658 28.6233C7.84967 30.0522 10.9085 30.0531 13.9234 28.6233C14.1413 28.5203 14.2802 28.301 14.2802 28.0596C14.2802 25.3562 12.0808 23.1567 9.37736 23.1567ZM5.74888 27.6665C5.94509 25.8351 7.49759 24.4048 9.37736 24.4048C11.2599 24.4048 12.8145 25.8351 13.0111 27.6665C10.5718 28.7172 8.1881 28.7172 5.74888 27.6665ZM16.7794 18.7774H24.495C24.8396 18.7774 25.1191 18.4983 25.1191 18.1534C25.1191 17.8085 24.8396 17.5294 24.495 17.5294H16.7794C16.4348 17.5294 16.1554 17.8085 16.1554 18.1534C16.1554 18.4983 16.4348 18.7774 16.7794 18.7774ZM36.2216 20.9787H16.7794C16.4348 20.9787 16.1554 21.2578 16.1554 21.6028C16.1554 21.9477 16.4348 22.2268 16.7794 22.2268H36.2216C36.5662 22.2268 36.8457 21.9477 36.8457 21.6028C36.8457 21.2578 36.5662 20.9787 36.2216 20.9787ZM16.7794 25.6761H24.495C24.8396 25.6761 25.1191 25.397 25.1191 25.0521C25.1191 24.7072 24.8396 24.4281 24.495 24.4281H16.7794C16.4348 24.4281 16.1554 24.7072 16.1554 25.0521C16.1554 25.397 16.4348 25.6761 16.7794 25.6761ZM36.2216 27.8773H16.7794C16.4348 27.8773 16.1554 28.1565 16.1554 28.5014C16.1554 28.8463 16.4348 29.1254 16.7794 29.1254H36.2216C36.5662 29.1254 36.8457 28.8463 36.8457 28.5014C36.8457 28.1565 36.5662 27.8773 36.2216 27.8773Z" fill="#33226E"/>
</g>
<defs>
<clipPath id="clip0_2056_8309">
<rect width="39.9437" height="39.9437" fill="white" transform="translate(0.690918 0.212891)"/>
</clipPath>
</defs>
</svg>
