<svg width="37" height="43" viewBox="0 0 37 43" fill="none" xmlns="http://www.w3.org/2000/svg">
<path d="M28.3368 3.51738V34.7085C28.3368 35.8471 27.4136 36.7703 26.275 36.7703H3.58573C1.64285 36.7703 0.0683594 35.1959 0.0683594 33.2529V8.26061C0.0683594 7.92376 0.198931 7.60684 0.436001 7.36736L7.43406 0.371797C7.55178 0.253544 7.69178 0.1598 7.84595 0.0959837C8.00013 0.0321678 8.16543 -0.000453888 8.33229 4.77009e-06H24.8195C26.7623 4.77009e-06 28.3368 1.57441 28.3368 3.51738Z" fill="#CAE6FF"/>
<path d="M28.3374 3.51737V34.7085C28.3374 35.8471 27.4142 36.7703 26.2755 36.7703H14.2031V0H24.82C26.7629 0 28.3374 1.57441 28.3374 3.51737Z" fill="#98CDF4"/>
<path d="M9.57989 8.20325C9.57989 8.21238 9.57823 8.22234 9.57823 8.23239C9.57823 8.24152 9.57989 8.25148 9.57989 8.26069C9.57989 8.95016 9.021 9.5083 8.33228 9.5083H0.0683594V8.26069C0.0683594 7.92385 0.198931 7.60692 0.436001 7.36745L7.43406 0.37188C7.55177 0.253601 7.69176 0.159834 7.84594 0.0960028C8.00011 0.0321717 8.16542 -0.000456692 8.33228 4.82842e-06H9.57989V8.20325ZM22.0955 14.8201H6.30947C5.6205 14.8201 5.06186 14.2615 5.06186 13.5724C5.06186 12.8834 5.62042 12.3248 6.30947 12.3248H22.0956C22.7845 12.3248 23.3432 12.8834 23.3432 13.5724C23.3432 14.2615 22.7846 14.8201 22.0955 14.8201ZM22.0955 19.6325H6.30947C5.6205 19.6325 5.06186 19.074 5.06186 18.3849C5.06186 17.6959 5.62042 17.1373 6.30947 17.1373H22.0956C22.7845 17.1373 23.3432 17.6959 23.3432 18.3849C23.3432 19.074 22.7846 19.6325 22.0955 19.6325ZM22.0955 24.6372H6.30947C5.6205 24.6372 5.06186 24.0787 5.06186 23.3896C5.06186 22.7006 5.62042 22.142 6.30947 22.142H22.0956C22.7845 22.142 23.3432 22.7006 23.3432 23.3896C23.3432 24.0786 22.7846 24.6372 22.0955 24.6372ZM12.6569 29.6037H6.30947C5.6205 29.6037 5.06186 29.0451 5.06186 28.3561C5.06186 27.6671 5.62042 27.1084 6.30947 27.1084H12.6569C13.3459 27.1084 13.9045 27.667 13.9045 28.3561C13.9045 29.045 13.3459 29.6037 12.6569 29.6037Z" fill="#00A5FF"/>
<path d="M36.434 34.4092C36.434 38.8731 32.8028 42.5052 28.3381 42.5052C23.8734 42.5052 20.2422 38.8731 20.2422 34.4092C20.2422 29.9446 23.8734 26.3125 28.3381 26.3125C32.8028 26.3125 36.434 29.9446 36.434 34.4092Z" fill="#6B77E8"/>
<path d="M36.4319 34.4093C36.4319 38.8732 32.8006 42.5052 28.3359 42.5052V26.3125C32.8006 26.3125 36.4319 29.9447 36.4319 34.4093Z" fill="#4B5BE4"/>
<path d="M29.5852 31.2398V34.3995C29.5852 35.0881 29.0263 35.6471 28.3375 35.6471C27.6489 35.6471 27.0899 35.0882 27.0899 34.3995V31.2398C27.0899 30.5512 27.6488 29.9922 28.3375 29.9922C29.0263 29.9922 29.5852 30.5511 29.5852 31.2398ZM29.5852 37.7014C29.5852 37.7421 29.5827 37.7829 29.5785 37.8236C29.5744 37.8644 29.5686 37.9052 29.5603 37.9451C29.5528 37.985 29.542 38.0249 29.5303 38.0632C29.5187 38.1023 29.5045 38.1406 29.4895 38.1788C29.4579 38.2537 29.4195 38.3255 29.3748 38.3934C29.3523 38.4275 29.3274 38.4608 29.3016 38.4924C29.2759 38.5241 29.2484 38.5544 29.2193 38.583C29.191 38.6121 29.1602 38.6395 29.1286 38.6662C29.097 38.6912 29.0637 38.7161 29.0297 38.7386C28.9958 38.7611 28.9608 38.7819 28.9248 38.8009C28.8891 38.82 28.8516 38.8375 28.8142 38.8533C28.7767 38.869 28.7385 38.8824 28.6994 38.8949C28.6603 38.9065 28.6212 38.9165 28.5813 38.924C28.5413 38.9323 28.5006 38.9389 28.4598 38.9423C28.4191 38.9464 28.3783 38.9489 28.3375 38.9489C28.2968 38.9489 28.2552 38.9464 28.2144 38.9423C28.1745 38.9389 28.1338 38.9323 28.0938 38.924C28.0539 38.9165 28.014 38.9066 27.9749 38.8949C27.9358 38.8824 27.8975 38.869 27.8601 38.8533C27.8226 38.8375 27.7852 38.82 27.7494 38.8009C27.7137 38.7818 27.6787 38.761 27.6446 38.7386C27.6106 38.7159 27.5776 38.6917 27.5457 38.6662C27.5143 38.6398 27.484 38.612 27.455 38.583C27.4258 38.5544 27.3984 38.5241 27.3727 38.4924C27.3469 38.4606 27.3227 38.4276 27.3003 38.3934C27.2778 38.3601 27.2562 38.3243 27.237 38.2887C27.2179 38.253 27.2004 38.2163 27.1855 38.1788C27.1697 38.1406 27.1555 38.1023 27.1439 38.0632C27.1323 38.0249 27.1222 37.985 27.1139 37.9451C27.0975 37.8649 27.0895 37.7832 27.0899 37.7014C27.0896 37.6195 27.0977 37.5379 27.1139 37.4577C27.1222 37.4177 27.1322 37.3778 27.1439 37.3387C27.1555 37.3004 27.1697 37.2613 27.1855 37.2239C27.2004 37.1865 27.2179 37.149 27.237 37.1133C27.2561 37.0775 27.2778 37.0425 27.3003 37.0084C27.3228 36.9743 27.3468 36.941 27.3727 36.9103C27.4244 36.8467 27.4823 36.7885 27.5457 36.7365C27.5773 36.7107 27.6106 36.6866 27.6446 36.6641C27.6787 36.6416 27.7137 36.62 27.7494 36.6009C27.7852 36.5826 27.8226 36.5642 27.8601 36.5493C27.8975 36.5335 27.9358 36.5193 27.9749 36.5077C28.014 36.4961 28.0539 36.4861 28.0938 36.4778C28.1338 36.4703 28.1745 36.4636 28.2144 36.4595C28.2552 36.4553 28.296 36.4537 28.3375 36.4537C28.3783 36.4537 28.4191 36.4553 28.4598 36.4595C28.5006 36.4636 28.5413 36.4703 28.5813 36.4778C28.6212 36.4861 28.6603 36.496 28.6994 36.5077C28.7385 36.5193 28.7767 36.5335 28.8142 36.5493C28.8516 36.5642 28.8891 36.5826 28.9248 36.6009C28.9606 36.6199 28.9964 36.6416 29.0297 36.6641C29.0638 36.6866 29.0971 36.7107 29.1286 36.7365C29.1602 36.7623 29.191 36.7897 29.2193 36.8188C29.2484 36.848 29.2758 36.8787 29.3016 36.9103C29.3274 36.9411 29.3523 36.9743 29.3748 37.0084C29.4197 37.0765 29.4581 37.1487 29.4895 37.2239C29.5045 37.2613 29.5187 37.3004 29.5303 37.3387C29.5419 37.3778 29.5528 37.4177 29.5603 37.4577C29.5686 37.4976 29.5744 37.5383 29.5785 37.5783C29.5827 37.619 29.5852 37.6606 29.5852 37.7014Z" fill="#FFB64C"/>
<path d="M29.5769 37.5782C29.5811 37.6189 29.5835 37.6605 29.5835 37.7013C29.5835 37.742 29.5811 37.7828 29.5769 37.8236C29.5728 37.8643 29.5669 37.9051 29.5586 37.945C29.5512 37.9849 29.5404 38.0249 29.5287 38.0631C29.5171 38.1022 29.5029 38.1405 29.4879 38.1787C29.4563 38.2536 29.4179 38.3255 29.3732 38.3933C29.3507 38.4274 29.3258 38.4607 29.3 38.4923C29.2743 38.524 29.2468 38.5543 29.2176 38.5829C29.1893 38.6121 29.1586 38.6394 29.127 38.6661C29.0954 38.6911 29.0621 38.716 29.0281 38.7385C28.9942 38.761 28.9592 38.7818 28.9232 38.8008C28.8874 38.8199 28.85 38.8374 28.8126 38.8532C28.7751 38.869 28.7369 38.8823 28.6978 38.8948C28.6587 38.9064 28.6196 38.9164 28.5796 38.9239C28.5397 38.9322 28.499 38.9389 28.4582 38.9422C28.4175 38.9463 28.3767 38.9488 28.3359 38.9488V36.4537C28.3767 36.4537 28.4175 36.4553 28.4582 36.4595C28.499 36.4636 28.5397 36.4703 28.5796 36.4778C28.6196 36.4861 28.6587 36.496 28.6978 36.5077C28.7369 36.5193 28.7751 36.5335 28.8126 36.5493C28.85 36.5642 28.8874 36.5826 28.9232 36.6009C28.959 36.6199 28.9948 36.6416 29.0281 36.6641C29.0622 36.6866 29.0955 36.7107 29.127 36.7365C29.1586 36.7623 29.1893 36.7897 29.2176 36.8188C29.2468 36.848 29.2742 36.8787 29.3 36.9103C29.3258 36.9411 29.3507 36.9743 29.3732 37.0084C29.418 37.0765 29.4564 37.1487 29.4879 37.2239C29.5029 37.2613 29.5171 37.3004 29.5287 37.3387C29.5403 37.3778 29.5512 37.4177 29.5586 37.4577C29.5669 37.4975 29.5728 37.5383 29.5769 37.5782ZM29.5835 31.2397V34.3994C29.5835 35.088 29.0247 35.647 28.3359 35.647V29.9922C29.0247 29.9921 29.5835 30.551 29.5835 31.2397Z" fill="#FFA81F"/>
</svg>
