<svg width="22" height="22" viewBox="0 0 22 22" fill="none" xmlns="http://www.w3.org/2000/svg">
<path fill-rule="evenodd" clip-rule="evenodd" d="M3.66353 21.056C1.92715 21.056 0.519531 19.6484 0.519531 17.912V9.8802C0.519531 8.98888 0.897817 8.13951 1.56031 7.54327L8.8963 0.940879C10.092 -0.135239 11.9071 -0.135239 13.1028 0.940868L20.4388 7.54327C21.1012 8.13951 21.4795 8.98888 21.4795 9.8802V17.912C21.4795 19.6484 20.072 21.056 18.3355 21.056H3.66353ZM19.3835 9.8802V17.912C19.3835 18.4908 18.9143 18.96 18.3355 18.96H15.1915V13.72C15.1915 11.9835 13.784 10.576 12.0475 10.576H9.95153C8.21515 10.576 6.80753 11.9835 6.80753 13.72V18.96H3.66353C3.08474 18.96 2.61553 18.4908 2.61553 17.912V9.8802C2.61553 9.5831 2.74163 9.29993 2.96246 9.10123L10.2984 2.49881C10.697 2.14012 11.3021 2.14012 11.7006 2.49881L19.0366 9.10123C19.2575 9.29993 19.3835 9.5831 19.3835 9.8802ZM8.90353 18.96V13.72C8.90353 13.1412 9.37272 12.672 9.95153 12.672H12.0475C12.6263 12.672 13.0955 13.1412 13.0955 13.72V18.96H8.90353Z" fill="#4E4E4F"/>
</svg>
