<svg width="20" height="20" viewBox="0 0 20 20" fill="none" xmlns="http://www.w3.org/2000/svg">
<path d="M10 1C5.0295 1 1 5.0295 1 10C1 14.9705 5.0295 19 10 19C14.9705 19 19 14.9705 19 10" stroke="#221E1E" stroke-width="2" stroke-linecap="round" stroke-linejoin="round"/>
<path d="M10 5.5C9.10999 5.5 8.23996 5.76392 7.49994 6.25839C6.75991 6.75285 6.18314 7.45566 5.84254 8.27792C5.50195 9.10019 5.41283 10.005 5.58647 10.8779C5.7601 11.7508 6.18869 12.5526 6.81802 13.182C7.44736 13.8113 8.24918 14.2399 9.1221 14.4135C9.99501 14.5872 10.8998 14.4981 11.7221 14.1575C12.5443 13.8169 13.2471 13.2401 13.7416 12.5001C14.2361 11.76 14.5 10.89 14.5 10M10 10L13.15 6.847" stroke="#221E1E" stroke-width="2" stroke-linecap="round" stroke-linejoin="round"/>
<path d="M13.1504 3.713V6.85H16.3129L19.0004 4.15H15.8519V1L13.1504 3.713Z" stroke="#221E1E" stroke-width="2" stroke-linejoin="round"/>
</svg>
